# xmcd
#
# Track frame offsets: 
#        183
#        16308
#        32170
#        49183
#        67248
#        81783
#        96753
#        113978
#        136178
#        150518
#        165018
#        181578
#        198258
#        213770
#
# Disc length: 3017 seconds
#
# Revision: 4
# Processed by: cddbd v1.5.2PL0 Copyright (c) Steve Scherf et al.
# Submitted via: ExactAudioCopy v1.0b1
#
DISCID=a90bc70e
DTITLE=Gunter Gabriel - Truck Gold - Gunter Gabriel
DYEAR=1996
DGENRE=Country
TTITLE0=Ohne Moos nichts los
TTITLE1=Damen wollen Kerle
TTITLE2=(Wir sind) Die Fahrer
TTITLE3=Das bringst nur Du
TTITLE4=Hallo Dortmund (Duett mit Manfred Krug)
TTITLE5=Sohn aus dem Volk
TTITLE6=Nicotin-Coffein-Aspirin
TTITLE7=Dosenbier und Countrymusic
TTITLE8=Gefangene der Straﬂe (Duett mit Manfred Krug)
TTITLE9=Deutschland ist ...
TTITLE10=Deutsches Laster, gutes Laster (Allah ist mit dir)
TTITLE11=Mann mit der Fackel
TTITLE12=Alle M‰dchen ab 30 (lieben am besten)
TTITLE13=Hier ist mein Land (Sprechversion)
EXTD=
EXTT0=
EXTT1=
EXTT2=
EXTT3=
EXTT4=
EXTT5=
EXTT6=
EXTT7=
EXTT8=
EXTT9=
EXTT10=
EXTT11=
EXTT12=
EXTT13=
PLAYORDER=
